<svg xmlns="http://www.w3.org/2000/svg" width="133.255" height="36.641" viewBox="0 0 133.255 36.641">
  <g id="Grupo_57941" data-name="Grupo 57941" transform="translate(-1047.317 -143.764)">
    <g id="Grupo_57944" data-name="Grupo 57944" transform="translate(1095.55 143.764)">
      <path id="Trazado_65004" data-name="Trazado 65004" d="M1138.244,157.838v-14.07H1134.8v17.345h3.442Z" transform="translate(-1134.522 -143.765)" fill="#111"/>
      <rect id="Rect치ngulo_9320" data-name="Rect치ngulo 9320" width="3.298" height="11.568" transform="translate(6.512 5.779)" fill="#111"/>
      <path id="Trazado_65005" data-name="Trazado 65005" d="M1147.334,147.687a1.962,1.962,0,0,0,.148-3.922c-.049,0-.1,0-.148,0a1.962,1.962,0,0,0,0,3.922Z" transform="translate(-1139.198 -143.764)" fill="#111"/>
      <path id="Trazado_65006" data-name="Trazado 65006" d="M1160.328,159.113a2.119,2.119,0,0,1,2-2.23c.046,0,.091,0,.137,0a1.983,1.983,0,0,1,2.1,1.863,1.961,1.961,0,0,1-.007.324v6.482h3.252v-6.459a2.119,2.119,0,0,1,2.026-2.207c.046,0,.09,0,.135,0a1.975,1.975,0,0,1,2.067,2.187v6.482h3.179v-7.3a4,4,0,0,0-4.237-4.382,3.894,3.894,0,0,0-3.55,1.794l-.168.237-.13-.256a3.53,3.53,0,0,0-3.37-1.776c-1.149,0-2.7.365-3.277,1.389l-.323.566v-1.846h-3.129v11.57h3.3Z" transform="translate(-1144.287 -148.199)" fill="#111"/>
      <path id="Trazado_65007" data-name="Trazado 65007" d="M1200.36,164.2l.319-.5v.591c0,.561,0,1.111.006,1.378h2.9c0-.3.009-.953.009-1.615v-5.646c0-2.726-1.861-4.29-5.1-4.29-3.347,0-4.815,2.043-5.033,3.513l2.759.368a2.047,2.047,0,0,1,2.25-1.458c1.329,0,1.922.717,1.922,1.427,0,.539-.341.863-1.01.959l-2.8.419c-2.114.3-3.374,1.539-3.374,3.315,0,1.842,1.584,3.084,3.946,3.084A3.629,3.629,0,0,0,1200.36,164.2Zm-3.913-1.77c0-.559.261-1.265,1.491-1.45h0l2.452-.378v.711c0,1.991-1.343,2.223-2.355,2.223C1196.981,163.533,1196.447,163.16,1196.447,162.427Z" transform="translate(-1160.179 -148.312)" fill="#111"/>
      <path id="Trazado_65008" data-name="Trazado 65008" d="M1142.766,196.828a2.7,2.7,0,0,1-2.506,1.376h-.028a3.027,3.027,0,0,1-3.022-2.994c0-.07,0-.139.006-.226a3.078,3.078,0,0,1,3.033-3.333,2.552,2.552,0,0,1,2.359,1.228l.082.135h2.951l-.089-.35a5.212,5.212,0,0,0-5.321-3.823,5.905,5.905,0,0,0-5.927,6.143,5.827,5.827,0,0,0,5.946,6.1h0c.088,0,.176.006.264.006a5.375,5.375,0,0,0,5.2-4.054l.088-.349h-2.954Z" transform="translate(-1134.303 -164.446)" fill="#111"/>
      <path id="Trazado_65009" data-name="Trazado 65009" d="M1161.393,190.993l-.327.7v-2.3h-3.179v11.542h3.3v-4.968c0-2.11,1.1-3.371,2.95-3.371a5.722,5.722,0,0,1,.979.079v-3.205a3.891,3.891,0,0,0-.786-.079A3.2,3.2,0,0,0,1161.393,190.993Z" transform="translate(-1144.664 -164.685)" fill="#111"/>
      <path id="Trazado_65010" data-name="Trazado 65010" d="M1178.234,189.385a5.657,5.657,0,0,0-5.772,5.54c0,.08,0,.16,0,.239a5.76,5.76,0,0,0,6.035,5.847c3.07,0,4.72-1.678,5.271-3.3l-2.724-.733a2.5,2.5,0,0,1-2.5,1.441,2.718,2.718,0,0,1-2.879-2.337l-.011-.18h8.328a8.605,8.605,0,0,0,.047-.9C1184.03,191.485,1181.862,189.385,1178.234,189.385Zm-2.515,4.63.017-.182a2.411,2.411,0,0,1,2.547-2.059,2.267,2.267,0,0,1,2.568,2.064l.008.177Z" transform="translate(-1151.066 -164.684)" fill="#111"/>
      <path id="Trazado_65011" data-name="Trazado 65011" d="M1221.852,182.464l-3.181,1.773-.005,2.111-2.173-.027v2.84h2.111v5.278c0,2.25,1.316,3.489,3.707,3.489.7,0,.983-.013,1.28-.033.155-.008.312-.016.534-.025l.005-2.62a7.9,7.9,0,0,1-.8-.041c-.744-.071-1.474-.239-1.474-1.419v-4.63h2.325v-2.843h-2.325Z" transform="translate(-1170.41 -161.644)" fill="#111"/>
      <rect id="Rect치ngulo_9321" data-name="Rect치ngulo 9321" width="3.298" height="11.568" transform="translate(56.102 24.675)" fill="#111"/>
      <path id="Trazado_65012" data-name="Trazado 65012" d="M1235.931,179.034c-.049,0-.1,0-.148,0a1.962,1.962,0,1,0,.148,0Z" transform="translate(-1178.055 -160.137)" fill="#111"/>
      <path id="Trazado_65013" data-name="Trazado 65013" d="M1249.653,197.082l-2.884-7.747h-3.577l4.749,11.568h3.432l4.4-11.568-3.463,0Z" transform="translate(-1182.139 -164.663)" fill="#111"/>
      <path id="Trazado_65014" data-name="Trazado 65014" d="M1200.962,189.385c-3.345,0-4.815,2.043-5.033,3.513l2.762.368c.168-.893,1.031-1.458,2.25-1.458,1.326,0,1.923.717,1.923,1.427,0,.539-.341.863-1.014.959l-2.8.419c-2.114.3-3.377,1.539-3.377,3.315,0,1.842,1.59,3.084,3.954,3.084a3.622,3.622,0,0,0,3.209-1.547l.318-.5v.591c0,.561.006,1.111.006,1.378h2.9c0-.3.008-.953.008-1.615v-5.646C1206.064,190.949,1204.207,189.385,1200.962,189.385Zm1.9,7.194c0,1.991-1.346,2.223-2.354,2.223-1.051,0-1.586-.373-1.586-1.106,0-.559.258-1.265,1.49-1.45h0l2.451-.378Z" transform="translate(-1161.262 -164.685)" fill="#111"/>
      <path id="Trazado_65015" data-name="Trazado 65015" d="M1272.7,189.385c-3.345,0-4.815,2.043-5.034,3.513l2.762.368c.168-.893,1.029-1.458,2.25-1.458,1.326,0,1.92.717,1.92,1.427,0,.539-.337.863-1.01.959l-2.8.419c-2.111.3-3.375,1.539-3.375,3.315,0,1.844,1.588,3.084,3.952,3.084a3.624,3.624,0,0,0,3.208-1.547l.318-.5v.591c0,.561,0,1.111.005,1.378h2.9c0-.3.009-.953.009-1.615v-5.646C1277.8,190.949,1275.943,189.385,1272.7,189.385Zm1.9,7.192c0,1.993-1.343,2.224-2.354,2.224v0c-1.051,0-1.585-.373-1.585-1.106,0-.561.256-1.264,1.487-1.449l2.451-.378Z" transform="translate(-1192.777 -164.685)" fill="#111"/>
    </g>
    <g id="Grupo_57943" data-name="Grupo 57943" transform="translate(1047.317 143.764)">
      <g id="Grupo_57921" data-name="Grupo 57921" transform="translate(0 0)">
        <g id="Trazado_64955" data-name="Trazado 64955" transform="translate(25.04 1.254)">
          <path id="Trazado_65001" data-name="Trazado 65001" d="M1096.266,146.188a1.263,1.263,0,0,0-1.711.515,1.243,1.243,0,0,0-.072.161l-2.747,9.089,5.164-7.968a1.261,1.261,0,0,0-.472-1.719A1.278,1.278,0,0,0,1096.266,146.188Z" transform="translate(-1091.736 -146.037)" fill="#e0004d"/>
        </g>
        <g id="Trazado_64956" data-name="Trazado 64956" transform="translate(26.197 8.757)">
          <path id="Trazado_65002" data-name="Trazado 65002" d="M1103.906,161.221a1.333,1.333,0,0,0-1.1-2.428l-8.007,5.1Z" transform="translate(-1094.795 -158.673)" fill="#e0004d"/>
        </g>
        <g id="Trazado_64957" data-name="Trazado 64957" transform="translate(26.547 16.78)">
          <path id="Trazado_65003" data-name="Trazado 65003" d="M1104.75,175.039l-9.319-1.825,8.446,4.343a1.333,1.333,0,1,0,.931-2.5l-.058-.02Z" transform="translate(-1095.43 -173.214)" fill="#e0004d"/>
        </g>
        <path id="Trazado_65016" data-name="Trazado 65016" d="M1416.578,158.113a18.268,18.268,0,0,0-16.729,16.73c-.014.141-.026.282-.031.423-.023.334-.034.692-.034,1.1s.011.768.034,1.1c.005.145.017.29.031.429a18.269,18.269,0,0,0,16.729,16.732,18.3,18.3,0,0,0,13.351-4.271,1.347,1.347,0,0,0,.123-.1c.6-.515,1.647-1.63,1.954-1.962l-12.48-12.5v-.057L1419.5,158.1c-.474-.036-.943-.055-1.4-.055C1417.6,158.049,1417.091,158.071,1416.578,158.113Zm-13.92,16.7a15.4,15.4,0,0,1,3.426-8.275l.093-.113,8.549,8.541h-12.082Zm3.426,11.372a15.376,15.376,0,0,1-3.426-8.271l-.014-.153,12.079,0-8.542,8.539Zm10.621,5.638-.153-.015a15.4,15.4,0,0,1-8.175-3.348l-.193-.2,8.52-8.52Zm0-18.836-8.545-8.544.118-.1a15.424,15.424,0,0,1,8.273-3.423l.153-.015Zm11.335,15.3-.118.1a15.371,15.371,0,0,1-8.176,3.417l-.243.026V179.745Z" transform="translate(-1399.784 -158.049)" fill="#e0004d"/>
      </g>
    </g>
  </g>
</svg>
